<svg width="803" height="245" viewBox="0 0 803 245" fill="none" xmlns="http://www.w3.org/2000/svg">
<path d="M151.975 105.359L135.889 105.813C135.285 105.775 134.964 105.643 134.926 105.416C134.964 104.623 135.285 103.717 135.889 102.697C137.059 97.222 141.364 83.0618 148.803 60.2168C147.368 60.2923 146.462 60.3301 146.084 60.3301C146.008 60.2546 145.971 60.1602 145.971 60.0469C145.971 58.3854 146.367 57.1393 147.16 56.3086C147.953 55.4401 148.614 55.0059 149.143 55.0059C149.709 54.9681 150.181 54.9492 150.559 54.9492L153.9 44.9805C154.165 42.6393 154.901 41.0534 156.109 40.2227C156.525 39.9583 158.054 39.8262 160.697 39.8262C163.34 39.8262 168.778 39.9583 177.01 40.2227C177.954 40.2604 178.633 41.0723 179.049 42.6582C179.162 43.0358 179.219 43.3756 179.219 43.6777C179.219 44.3952 178.275 44.7728 176.387 44.8105C175.518 44.8105 174.631 44.8105 173.725 44.8105C172.818 44.7728 171.44 44.7539 169.59 44.7539C167.74 44.7539 164.587 44.8294 160.131 44.9805L156.959 55.0059C160.773 55.0814 164.775 55.1947 168.967 55.3457C169.911 55.3835 170.59 56.2331 171.006 57.8945C171.119 58.3099 171.176 58.6497 171.176 58.9141C171.025 59.6315 170.288 59.9902 168.967 59.9902L163.076 59.877C160.735 59.877 158.148 59.9147 155.316 59.9902L141.666 100.432C143.818 100.469 146.235 100.507 148.916 100.545C151.597 100.583 154.712 100.658 158.262 100.771C159.734 100.809 160.471 102.018 160.471 104.396C160.395 105.076 159.659 105.397 158.262 105.359C156.902 105.359 155.656 105.359 154.523 105.359H151.975ZM180.352 59.7637L180.975 59.5937C181.428 59.6315 181.654 60.2546 181.654 61.4629C181.654 62.6712 181.107 65.2389 180.012 69.166C178.917 73.0931 178.369 75.8874 178.369 77.5488C178.369 79.1725 178.482 80.5508 178.709 81.6836C179.842 81.0794 180.918 78.3229 181.938 73.4141C182.957 68.4674 183.637 65.6732 183.977 65.0312C184.316 64.3516 184.6 63.9928 184.826 63.9551C186.601 63.9551 187.771 64.8991 188.338 66.7871C188.527 67.3913 188.621 67.9766 188.621 68.543C188.621 71.7904 187.696 75.8307 185.846 80.6641C184.033 85.4974 182.466 88.5937 181.145 89.9531C179.823 91.2747 179.143 92.4264 179.105 93.4082C179.105 95.334 179.861 97.3353 181.371 99.4121C182.995 101.64 183.807 103.113 183.807 103.83C183.467 104.623 182.825 105.02 181.881 105.02C180.937 105.057 179.955 104.415 178.936 103.094C177.916 101.772 177.161 100.979 176.67 100.715C176.179 100.413 175.65 100.262 175.084 100.262C173.46 100.262 171.516 101.829 169.25 104.963L167.268 107.795C164.775 111.495 162.868 113.874 161.547 114.932C160.188 116.027 159.017 116.555 158.035 116.518C157.016 116.518 156.487 116.367 156.449 116.064C156.638 115.083 158.583 111.986 162.283 106.775C165.946 101.602 168.136 98.4492 168.854 97.3164C169.571 96.1458 170.383 94.8431 171.289 93.4082C172.233 91.9733 172.724 90.8594 172.762 90.0664C172.799 89.2734 172.648 87.5553 172.309 84.9121C172.007 82.2311 171.855 80.0977 171.855 78.5117C171.855 76.888 172.063 74.5469 172.479 71.4883L173.271 65.5977C173.385 64.3516 173.479 63.653 173.555 63.502C173.63 63.3131 173.838 63.1243 174.178 62.9355L180.352 59.7637ZM196.777 99.3555C203.499 92.2187 208.351 84.4401 211.334 76.0195C212.467 72.8477 213.203 69.7891 213.543 66.8437C212.637 65.5977 211.277 64.9746 209.465 64.9746C207.652 64.9746 206.35 65.4089 205.557 66.2773L202.895 76.6426C200.365 86.6868 198.326 94.2578 196.777 99.3555ZM184.713 136.455C182.372 140.118 179.672 142.988 176.613 145.064C173.517 147.179 171.006 148.236 169.08 148.236C167.117 148.236 166.135 147.84 166.135 147.047C166.135 146.707 166.588 146.443 167.494 146.254H167.607C170.628 145.574 173.498 143.592 176.217 140.307C176.821 139.589 177.331 138.872 177.746 138.154C182.315 130.904 186.393 119.935 189.98 105.246L196.324 78.5117C199.232 66.1263 201.025 59.084 201.705 57.3848C202.385 55.6855 203.14 54.7227 203.971 54.4961C204.65 54.2695 205.519 54.1562 206.576 54.1562C207.633 54.1562 208.238 54.4583 208.389 55.0625C208.426 55.2513 208.445 55.4779 208.445 55.7422C208.445 55.9687 208.294 56.6484 207.992 57.7812C207.69 58.9141 207.539 59.6693 207.539 60.0469C207.992 59.9714 208.691 59.9336 209.635 59.9336C213.751 59.9336 216.526 61.0286 217.961 63.2187C218.527 64.125 218.811 65.1445 218.811 66.2773C218.811 71.7904 216.866 78.2663 212.977 85.7051C209.087 93.1439 205.236 98.638 201.422 102.187C199.232 104.189 197.4 105.208 195.928 105.246C192.378 119.897 188.64 130.3 184.713 136.455ZM221.756 107.512C221.756 110.57 222.36 113.516 223.568 116.348C225.607 121.105 228.628 123.484 232.631 123.484C235.765 123.484 238.389 122.673 240.504 121.049C242.656 119.463 245.186 116.839 248.094 113.176C249 112.005 249.944 111.609 250.926 111.986C251.908 112.326 252.398 113.1 252.398 114.309C252.398 117.858 250.284 120.898 246.055 123.428C241.863 125.958 237.861 127.223 234.047 127.223C222.757 127.223 217.111 120.539 217.111 107.172C217.111 101.319 218.206 95.2207 220.396 88.877L220.963 87.2344C228.024 66.9948 233.499 53.4199 237.389 46.5098C240.107 41.5254 243.053 39.0332 246.225 39.0332C250.718 39.071 253.003 40.6947 253.078 43.9043C253.078 45.9056 251.738 49.0775 249.057 53.4199C246.376 57.7246 240.995 65.2578 232.914 76.0195C230.875 78.3229 229.063 80.9284 227.477 83.8359C223.663 91.0104 221.756 98.9023 221.756 107.512ZM232.178 69.6758C232.744 69.638 235.35 65.5599 239.994 57.4414C244.676 49.2852 246.999 45.0749 246.961 44.8105C246.923 44.5085 246.772 44.3574 246.508 44.3574C246.243 44.3197 246.074 44.3385 245.998 44.4141C244.752 45.1693 242.109 49.1908 238.068 56.4785C234.066 63.7285 232.064 68.0332 232.064 69.3926C232.064 69.5059 232.102 69.6003 232.178 69.6758ZM258.686 64.2383C256.798 64.5404 254.362 69.2604 251.379 78.3984C248.396 87.5365 246.904 92.9362 246.904 94.5977C246.904 96.2591 247.055 97.0898 247.357 97.0898C248.943 97.0898 251.417 93.6914 254.777 86.8945C258.138 80.0599 259.818 73.8105 259.818 68.1465C259.818 65.5788 259.441 64.276 258.686 64.2383ZM257.779 57.2148C258.837 57.2148 259.743 57.5169 260.498 58.1211C261.82 59.2539 262.48 61.444 262.48 64.6914C262.48 79.5312 259.837 90.6517 254.551 98.0527L253.758 99.2422C250.473 104 247.829 106.379 245.828 106.379C243.374 106.115 241.958 104.321 241.58 100.998C241.58 98.2415 242.694 92.653 244.922 84.2324C247.188 75.8118 249.774 68.5241 252.682 62.3691C254.343 58.9707 256.042 57.2526 257.779 57.2148ZM289.555 68.373L289.441 69.1094L289.328 69.7891C289.328 70.6953 288.007 74.3203 285.363 80.6641C282.682 87.0078 281.361 91.5013 281.398 94.1445C281.474 98.638 282.569 100.904 284.684 100.941C286.798 100.941 289.895 98.5814 293.973 93.8613C298.882 88.1973 301.883 83.9303 302.979 81.0605C304.074 78.2285 304.923 76.8125 305.527 76.8125C306.018 76.8503 306.283 77.3789 306.32 78.3984C306.32 79.3802 306.207 80.1354 305.98 80.6641L305.414 82.1934C303.79 86.347 301.242 90.6706 297.768 95.1641C292.745 101.772 288.271 105.076 284.344 105.076C283.098 105.076 281.965 104.755 280.945 104.113C278.378 102.49 277.094 99.431 277.094 94.9375C277.094 93.4648 277.415 91.1992 278.057 88.1406C278.736 85.082 279.057 83.4395 279.02 83.2129C279.02 82.9486 278.68 82.6654 278 82.3633C276.641 81.7591 275.734 81.6836 275.281 82.1367C274.904 82.6654 273.223 86.7435 270.24 94.3711C267.295 101.999 265.275 105.813 264.18 105.813C263.84 105.813 263.198 105.586 262.254 105.133C261.272 104.68 260.781 104.057 260.781 103.264C260.781 103.113 261.272 101.961 262.254 99.8086L265.369 92.6152C267.559 87.5553 270.127 80.8151 273.072 72.3945L280.605 51.0977C280.794 50.569 281.398 50.2858 282.418 50.248L283.891 50.1914C285.703 50.1914 286.609 50.8522 286.609 52.1738C286.609 52.8158 285.628 55.6478 283.664 60.6699C281.701 65.6921 280.436 69.5625 279.869 72.2812L279.699 73.9805C279.699 74.4714 279.794 74.7546 279.982 74.8301C280.096 74.7923 280.568 73.9616 281.398 72.3379L282.871 69.4492C283.098 69.1094 283.324 68.6562 283.551 68.0898C284.382 66.5417 285.363 65.7676 286.496 65.7676C288.46 65.8053 289.479 66.6172 289.555 68.2031V68.373ZM312.211 76.2461C312.966 76.1328 314.59 74.5091 317.082 71.375C319.574 68.2409 320.82 65.7865 320.82 64.0117C320.82 63.7474 320.726 63.4453 320.537 63.1055C319.782 63.8607 318.196 66.013 315.779 69.5625C313.4 73.112 312.211 75.3398 312.211 76.2461ZM334.754 84.6855C336.642 82.6465 337.699 82.2878 337.926 83.6094C337.926 84.1003 337.624 84.9121 337.02 86.0449C335.169 89.4811 332.337 93.125 328.523 96.9766C322.482 103.094 317.139 106.152 312.494 106.152C310.304 106.152 308.435 105.529 306.887 104.283C303.979 101.904 302.525 97.7695 302.525 91.8789C302.525 88.5182 303.545 83.7982 305.584 77.7187C307.661 71.6016 310.833 66.0697 315.1 61.123C316.988 58.7064 318.951 57.498 320.99 57.498C321.972 57.498 322.992 57.7057 324.049 58.1211C326.541 59.1406 327.787 60.7832 327.787 63.0488C327.787 63.3887 327.674 63.9362 327.447 64.6914C325.899 67.75 323.407 71.2806 319.971 75.2832C316.535 79.2858 313.042 82.4766 309.492 84.8555C308.284 89.2357 307.68 92.653 307.68 95.1074C307.68 97.5618 307.736 99.1289 307.85 99.8086C308.189 101.395 309.454 102.187 311.645 102.187C313.835 102.187 316.365 101.187 319.234 99.1855C322.104 97.1465 325.163 94.4655 328.41 91.1426C331.658 87.8197 333.489 85.9505 333.904 85.5352C334.357 85.1198 334.641 84.8366 334.754 84.6855ZM419.885 44.0176C419.885 46.5475 417.563 50.0404 412.918 54.4961C412.805 54.6094 412.71 54.6849 412.635 54.7227C415.24 54.7227 417.374 56.3275 419.035 59.5371C420.092 61.6517 420.621 63.7285 420.621 65.7676C420.621 71.6204 417.883 78.4928 412.408 86.3848C408.33 92.1999 403.232 97.7695 397.115 103.094C394.774 105.133 393.264 106.247 392.584 106.436C391.942 106.624 391.489 106.719 391.225 106.719C389.979 106.719 388.978 106.133 388.223 104.963C387.505 103.83 387.128 102.905 387.09 102.187C387.09 99.2044 391.225 83.4017 399.494 54.7793L403.006 42.6582C403.686 40.3171 405.687 38.8255 409.01 38.1836C409.878 38.0325 410.747 37.957 411.615 37.957C414.636 37.957 416.77 38.6367 418.016 39.9961C419.262 41.3177 419.885 42.6582 419.885 44.0176ZM406.914 45.4336C406.499 48.3411 405.895 51.0977 405.102 53.7031C407.934 52.0794 409.973 50.4368 411.219 48.7754C412.465 47.0762 413.598 45.1315 414.617 42.9414C412.314 42.9792 409.897 43.7344 407.367 45.207L406.914 45.4336ZM414.617 59.4805C410.237 61.3307 405.951 64.125 401.76 67.8633C401.609 68.7318 400.268 73.6406 397.738 82.5898C395.246 91.5013 393.906 96.4857 393.717 97.543C397.266 95.4284 401.023 91.9355 404.988 87.0645C412.389 78.002 416.09 69.4492 416.09 61.4062C416.052 60.0469 415.769 59.3483 415.24 59.3105C415.127 59.3105 414.919 59.3672 414.617 59.4805ZM429.91 76.2461C430.665 76.1328 432.289 74.5091 434.781 71.375C437.273 68.2409 438.52 65.7865 438.52 64.0117C438.52 63.7474 438.425 63.4453 438.236 63.1055C437.481 63.8607 435.895 66.013 433.479 69.5625C431.1 73.112 429.91 75.3398 429.91 76.2461ZM452.453 84.6855C454.341 82.6465 455.398 82.2878 455.625 83.6094C455.625 84.1003 455.323 84.9121 454.719 86.0449C452.869 89.4811 450.036 93.125 446.223 96.9766C440.181 103.094 434.838 106.152 430.193 106.152C428.003 106.152 426.134 105.529 424.586 104.283C421.678 101.904 420.225 97.7695 420.225 91.8789C420.225 88.5182 421.244 83.7982 423.283 77.7187C425.36 71.6016 428.532 66.0697 432.799 61.123C434.687 58.7064 436.65 57.498 438.689 57.498C439.671 57.498 440.691 57.7057 441.748 58.1211C444.24 59.1406 445.486 60.7832 445.486 63.0488C445.486 63.3887 445.373 63.9362 445.147 64.6914C443.598 67.75 441.106 71.2806 437.67 75.2832C434.234 79.2858 430.741 82.4766 427.191 84.8555C425.983 89.2357 425.379 92.653 425.379 95.1074C425.379 97.5618 425.436 99.1289 425.549 99.8086C425.889 101.395 427.154 102.187 429.344 102.187C431.534 102.187 434.064 101.187 436.934 99.1855C439.803 97.1465 442.862 94.4655 446.109 91.1426C449.357 87.8197 451.188 85.9505 451.604 85.5352C452.057 85.1198 452.34 84.8366 452.453 84.6855ZM476.695 67.0137C470.654 68.0332 465.386 71.998 460.893 78.9082C456.512 85.6296 454.209 92.2754 453.982 98.8457C462.63 87.4421 470.201 76.8314 476.695 67.0137ZM474.09 62.1992L477.432 62.6523C477.96 62.6523 478.508 62.3503 479.074 61.7461C479.678 61.1419 480.434 60.8398 481.34 60.8398C482.284 60.8398 483.02 61.0853 483.549 61.5762C484.115 62.0671 484.398 62.5013 484.398 62.8789C484.398 63.2187 484.21 63.804 483.832 64.6348C483.454 65.4655 483.228 66.013 483.152 66.2773C478.13 82.0234 475.619 92.0677 475.619 96.4102C475.657 97.9206 475.997 98.6947 476.639 98.7324C478.942 98.7324 482.548 95.7116 487.457 89.6699C490.742 85.6296 492.857 82.6654 493.801 80.7773C494.783 78.8893 495.557 77.8887 496.123 77.7754C496.236 77.7754 496.331 77.7565 496.406 77.7187C497.086 77.7943 497.445 78.1908 497.482 78.9082C497.482 80.2676 495.915 83.3262 492.781 88.084C486.098 98.2793 480.32 103.377 475.449 103.377C471.938 103.377 470.182 100.923 470.182 96.0137C470.182 93.6725 470.654 90.765 471.598 87.291C472.542 83.7793 473.108 81.5892 473.297 80.7207C472.428 81.8535 469.521 85.9694 464.574 93.0684C459.628 100.167 456.078 104.359 453.926 105.643C453.246 106.02 452.661 106.228 452.17 106.266C450.018 106.266 448.451 105.416 447.469 103.717C447.016 102.886 446.789 101.697 446.789 100.148C446.751 98.5625 447.903 94.9375 450.244 89.2734C454.02 80.1354 458.306 73.0931 463.102 68.1465C466.878 64.2949 470.54 62.3125 474.09 62.1992ZM503.656 56.1387C505.204 56.7051 505.997 57.4603 506.035 58.4043C506.035 58.7441 505.771 59.6693 505.242 61.1797C505.242 61.1797 504.525 63.2376 503.09 67.3535C498.03 81.8535 495.179 91.4447 494.537 96.127C497.331 91.86 500.692 85.7806 504.619 77.8887C508.584 69.959 510.982 65.22 511.813 63.6719C512.643 62.1237 513.266 60.8021 513.682 59.707C514.135 58.612 514.55 58.0078 514.928 57.8945C515.305 57.7435 516.004 57.668 517.023 57.668C518.534 57.668 519.289 58.3665 519.289 59.7637C519.176 60.4811 518.364 62.8411 516.854 66.8437C515.381 70.8086 513.776 76.1328 512.039 82.8164C510.34 89.4622 509.49 94.1445 509.49 96.8633C509.528 99.5443 509.792 100.923 510.283 100.998C511.945 100.998 514.928 98.638 519.232 93.918C523.575 89.1602 526.747 84.8743 528.748 81.0605C529.579 79.5501 530.372 78.776 531.127 78.7383C531.505 78.8138 531.712 79.1159 531.75 79.6445C531.75 82.8164 529.635 86.9512 525.406 92.0488C521.215 97.1465 517.609 100.734 514.588 102.811L513.455 103.547C512.171 104.227 511.227 104.566 510.623 104.566H509.66C506.337 104 504.638 101.206 504.563 96.1836C504.563 93.6914 504.94 91.1237 505.695 88.4805L506.941 83.8926C503.241 92.0111 500.145 97.5996 497.652 100.658C495.198 103.679 492.97 105.189 490.969 105.189C489.458 105.114 488.703 103.755 488.703 101.111C488.703 96.7311 490.251 89.3867 493.348 79.0781C497.728 64.5404 500.484 56.8561 501.617 56.0254C501.844 55.9121 502.108 55.8555 502.41 55.8555C502.712 55.8555 503.128 55.9499 503.656 56.1387ZM545.061 60.2168L565.395 59.7637C565.81 59.7637 566.263 60.1413 566.754 60.8965C567.245 61.6139 567.509 62.5957 567.547 63.8418C567.509 64.6725 566.433 65.1068 564.318 65.1445C558.05 65.2956 550.46 66.0508 541.549 67.4102C540.907 69.2604 539.869 71.9225 538.434 75.3965C532.128 90.6517 528.975 101.357 528.975 107.512C528.975 110.57 529.56 113.516 530.73 116.348C532.77 121.105 535.809 123.484 539.85 123.484C542.984 123.484 545.608 122.673 547.723 121.049C549.875 119.463 552.405 116.839 555.313 113.176C556.219 112.005 557.163 111.59 558.145 111.93C559.089 112.345 559.561 113.157 559.561 114.365C559.561 117.839 557.559 120.728 553.557 123.031C549.554 125.372 545.249 126.543 540.643 126.543C536.074 126.543 532.109 124.863 528.748 121.502C525.425 118.141 523.764 113.667 523.764 108.078C523.764 104.34 524.236 100.337 525.18 96.0703C526.124 91.8034 527.842 86.498 530.334 80.1543C532.826 73.7728 534.45 69.5247 535.205 67.4102C527.389 67.4102 523.027 67.3158 522.121 67.127C519.327 66.5228 517.911 65.3333 517.873 63.5586C517.911 62.9922 518.345 62.6335 519.176 62.4824L537.584 60.9531L549.705 40.5625C551.102 38.2213 552.367 37.0508 553.5 37.0508C553.953 37.0508 554.482 37.1263 555.086 37.2773C557.314 37.7682 558.428 38.5801 558.428 39.7129C558.428 40.8079 557.295 42.5072 555.029 44.8105C552.764 47.1139 551.367 48.5866 550.838 49.2285C549.063 51.4186 547.137 55.0814 545.061 60.2168ZM574.287 51.7773C574.098 51.7018 573.626 51.3997 572.871 50.8711C571.965 50.2292 571.512 49.7572 571.512 49.4551C571.512 48.4355 572.928 46.0378 575.76 42.2617C578.592 38.4857 580.197 36.22 580.574 35.4648C581.518 34.5208 582.821 34.9928 584.482 36.8809C585.804 38.4668 586.219 39.7506 585.729 40.7324C585.464 41.7142 583.859 43.791 580.914 46.9629C577.969 50.1348 575.76 51.7396 574.287 51.7773ZM587.824 87.3477C586.427 91.2747 583.652 95.2773 579.498 99.3555C574.589 104.189 570.473 106.605 567.15 106.605C562.657 106.605 559.844 104.057 558.711 98.959C558.371 97.4108 558.201 95.7305 558.201 93.918C558.163 88.0651 559.277 81.2871 561.543 73.584C564.375 63.8418 567.056 58.9707 569.586 58.9707C570.832 58.9707 571.738 59.2728 572.305 59.877C572.909 60.4434 573.211 60.8587 573.211 61.123C573.211 62.3314 571.984 65.3145 569.529 70.0723C567.075 74.7923 565.546 78.2285 564.941 80.3809C564.375 82.4954 563.941 85.2708 563.639 88.707C563.374 92.1055 563.242 94.2956 563.242 95.2773C563.242 98.6003 563.639 100.677 564.432 101.508C565.262 102.339 566.263 102.773 567.434 102.811C570.757 102.811 574.721 99.9219 579.328 94.1445C581.556 91.3125 583.293 88.707 584.539 86.3281C585.106 85.4219 585.691 84.9687 586.295 84.9687C587.314 85.1198 587.881 85.6296 587.994 86.498C587.994 86.6113 587.938 86.8945 587.824 87.3477ZM610.82 65.2012L604.986 64.918C601.55 64.9557 598.775 66.8437 596.66 70.582C594.546 74.3203 591.921 81.7402 588.787 92.8418C585.653 103.906 583.52 110.91 582.387 113.855C576.911 127.865 571.134 135.454 565.055 136.625C564.488 136.738 563.96 136.795 563.469 136.795C561.316 136.795 560.146 135.794 559.957 133.793C559.957 132.698 560.561 131.943 561.77 131.527C566.452 130.168 569.699 128.544 571.512 126.656C573.286 124.768 574.797 122.503 576.043 119.859C579.441 112.609 583.029 100.734 586.805 84.2324C590.581 67.7311 594.395 53.4199 598.246 41.2988C599.19 38.3535 600.398 36.1445 601.871 34.6719C603.382 33.1992 604.722 32.444 605.893 32.4062C608.649 32.4062 610.027 34.6341 610.027 39.0898C610.027 40.6758 609.574 41.8841 608.668 42.7148C607.762 43.5078 606.78 43.9043 605.723 43.9043C604.665 43.8665 603.778 43.5078 603.061 42.8281C602.381 45.3203 601.588 48.0579 600.682 51.041C599.775 54.0241 598.888 57.2715 598.02 60.7832C599.077 59.6504 600.266 59.084 601.588 59.084C602.947 59.0462 604.854 59.4805 607.309 60.3867C609.763 61.2552 611.613 61.6895 612.859 61.6895L617.731 60.5C618.297 60.5755 618.599 60.821 618.637 61.2363C618.637 63.2754 616.805 64.5404 613.143 65.0312C612.35 65.1445 611.576 65.2012 610.82 65.2012ZM622.828 56.1387C624.376 56.7051 625.169 57.4603 625.207 58.4043C625.207 58.7441 624.943 59.6693 624.414 61.1797C624.414 61.1797 623.697 63.2376 622.262 67.3535C617.202 81.8535 614.351 91.4447 613.709 96.127C616.503 91.86 619.864 85.7806 623.791 77.8887C627.756 69.959 630.154 65.22 630.984 63.6719C631.815 62.1237 632.438 60.8021 632.854 59.707C633.307 58.612 633.722 58.0078 634.1 57.8945C634.477 57.7435 635.176 57.668 636.195 57.668C637.706 57.668 638.461 58.3665 638.461 59.7637C638.348 60.4811 637.536 62.8411 636.025 66.8437C634.553 70.8086 632.948 76.1328 631.211 82.8164C629.512 89.4622 628.662 94.1445 628.662 96.8633C628.7 99.5443 628.964 100.923 629.455 100.998C631.117 100.998 634.1 98.638 638.404 93.918C642.747 89.1602 645.919 84.8743 647.92 81.0605C648.751 79.5501 649.544 78.776 650.299 78.7383C650.676 78.8138 650.884 79.1159 650.922 79.6445C650.922 82.8164 648.807 86.9512 644.578 92.0488C640.387 97.1465 636.781 100.734 633.76 102.811L632.627 103.547C631.343 104.227 630.399 104.566 629.795 104.566H628.832C625.509 104 623.81 101.206 623.734 96.1836C623.734 93.6914 624.112 91.1237 624.867 88.4805L626.113 83.8926C622.413 92.0111 619.316 97.5996 616.824 100.658C614.37 103.679 612.142 105.189 610.141 105.189C608.63 105.114 607.875 103.755 607.875 101.111C607.875 96.7311 609.423 89.3867 612.52 79.0781C616.9 64.5404 619.656 56.8561 620.789 56.0254C621.016 55.9121 621.28 55.8555 621.582 55.8555C621.884 55.8555 622.3 55.9499 622.828 56.1387ZM647.127 107.512C647.127 110.57 647.731 113.516 648.939 116.348C650.979 121.105 653.999 123.484 658.002 123.484C661.136 123.484 663.76 122.673 665.875 121.049C668.027 119.463 670.557 116.839 673.465 113.176C674.371 112.005 675.315 111.609 676.297 111.986C677.279 112.326 677.77 113.1 677.77 114.309C677.77 117.858 675.655 120.898 671.426 123.428C667.234 125.958 663.232 127.223 659.418 127.223C648.128 127.223 642.482 120.539 642.482 107.172C642.482 101.319 643.578 95.2207 645.768 88.877L646.334 87.2344C653.395 66.9948 658.87 53.4199 662.76 46.5098C665.479 41.5254 668.424 39.0332 671.596 39.0332C676.089 39.071 678.374 40.6947 678.449 43.9043C678.449 45.9056 677.109 49.0775 674.428 53.4199C671.747 57.7246 666.366 65.2578 658.285 76.0195C656.246 78.3229 654.434 80.9284 652.848 83.8359C649.034 91.0104 647.127 98.9023 647.127 107.512ZM657.549 69.6758C658.115 69.638 660.721 65.5599 665.365 57.4414C670.048 49.2852 672.37 45.0749 672.332 44.8105C672.294 44.5085 672.143 44.3574 671.879 44.3574C671.615 44.3197 671.445 44.3385 671.369 44.4141C670.123 45.1693 667.48 49.1908 663.439 56.4785C659.437 63.7285 657.436 68.0332 657.436 69.3926C657.436 69.5059 657.473 69.6003 657.549 69.6758Z" fill="white"/>
<g filter="url(#filter0_d_165_2)">
<path d="M59.5205 148.948C58.1469 146.418 56.1589 144.502 53.5563 143.201C51.026 141.827 48.0257 141.14 44.5556 141.14C38.5552 141.14 33.7476 143.128 30.1329 147.105C26.5182 151.008 24.7108 156.25 24.7108 162.829C24.7108 169.841 26.5905 175.336 30.3498 179.312C34.1814 183.216 39.4227 185.168 46.0738 185.168C50.6283 185.168 54.4599 184.011 57.5686 181.697C60.7495 179.384 63.063 176.058 64.5088 171.721H40.977V158.057H81.3173V175.299C79.9437 179.926 77.5941 184.228 74.2686 188.204C71.0153 192.18 66.8584 195.397 61.7978 197.855C56.7372 200.313 51.026 201.542 44.6641 201.542C37.1454 201.542 30.4221 199.916 24.4939 196.662C18.6381 193.337 14.0474 188.746 10.7219 182.89C7.46862 177.034 5.842 170.347 5.842 162.829C5.842 155.31 7.46862 148.623 10.7219 142.767C14.0474 136.839 18.6381 132.248 24.4939 128.995C30.3498 125.669 37.037 124.007 44.5556 124.007C53.6647 124.007 61.3279 126.212 67.5452 130.621C73.8348 135.031 77.9917 141.14 80.016 148.948H59.5205ZM110.132 139.731V155.129H134.965V169.444H110.132V186.144H138.219V201H91.5887V124.874H138.219V139.731H110.132ZM218.359 201H199.815L168.801 154.045V201H150.257V124.874H168.801L199.815 172.046V124.874H218.359V201ZM250.344 139.731V155.129H275.177V169.444H250.344V186.144H278.43V201H231.8V124.874H278.43V139.731H250.344ZM329.291 201L313.458 172.263H309.012V201H290.469V124.874H321.591C327.592 124.874 332.689 125.922 336.882 128.019C341.147 130.115 344.328 133.007 346.425 136.694C348.521 140.309 349.569 144.357 349.569 148.84C349.569 153.9 348.123 158.419 345.232 162.395C342.412 166.371 338.219 169.19 332.652 170.853L350.22 201H329.291ZM309.012 159.142H320.507C323.905 159.142 326.435 158.31 328.098 156.647C329.833 154.985 330.701 152.635 330.701 149.599C330.701 146.707 329.833 144.43 328.098 142.767C326.435 141.104 323.905 140.273 320.507 140.273H309.012V159.142ZM408.599 187.553H380.187L375.633 201H356.222L383.766 124.874H405.237L432.781 201H413.153L408.599 187.553ZM403.827 173.239L394.393 145.37L385.067 173.239H403.827ZM459.708 186.686H483.999V201H441.164V124.874H459.708V186.686ZM534.367 186.686H558.658V201H515.824V124.874H534.367V186.686ZM585.721 124.874V170.419C585.721 174.974 586.842 178.48 589.083 180.938C591.324 183.396 594.613 184.625 598.951 184.625C603.289 184.625 606.614 183.396 608.928 180.938C611.241 178.48 612.398 174.974 612.398 170.419V124.874H630.941V170.311C630.941 177.107 629.495 182.854 626.603 187.553C623.712 192.252 619.808 195.795 614.892 198.181C610.048 200.566 604.626 201.759 598.626 201.759C592.625 201.759 587.239 200.602 582.468 198.289C577.769 195.903 574.045 192.361 571.298 187.662C568.551 182.89 567.178 177.107 567.178 170.311V124.874H585.721ZM712.064 201H693.52L662.506 154.045V201H643.963V124.874H662.506L693.52 172.046V124.874H712.064V201ZM772.894 187.553H744.483L739.928 201H720.517L748.061 124.874H769.533L797.077 201H777.449L772.894 187.553ZM768.123 173.239L758.689 145.37L749.363 173.239H768.123Z" fill="#F2EA2A"/>
</g>
<defs>
<filter id="filter0_d_165_2" x="0.41992" y="124.007" width="802.079" height="101.248" filterUnits="userSpaceOnUse" color-interpolation-filters="sRGB">
<feFlood flood-opacity="0" result="BackgroundImageFix"/>
<feColorMatrix in="SourceAlpha" type="matrix" values="0 0 0 0 0 0 0 0 0 0 0 0 0 0 0 0 0 0 127 0" result="hardAlpha"/>
<feOffset dy="18.0736"/>
<feGaussianBlur stdDeviation="2.71104"/>
<feComposite in2="hardAlpha" operator="out"/>
<feColorMatrix type="matrix" values="0 0 0 0 0 0 0 0 0 0 0 0 0 0 0 0 0 0 0.12 0"/>
<feBlend mode="normal" in2="BackgroundImageFix" result="effect1_dropShadow_165_2"/>
<feBlend mode="normal" in="SourceGraphic" in2="effect1_dropShadow_165_2" result="shape"/>
</filter>
</defs>
</svg>
